# xmcd
#
# Track frame offsets:
# 150
# 3698
# 18294
# 30419
# 44608
# 45207
# 65644
# 83574
# 84395
# 109110
# 125761
# 138661
# 153930
# 171769
# 190319
# 207810
# 224291
# 238961
# 257950
# 281432
# 282301
# 300115
#
# Disc length: 4281 seconds
#
#
# Revision: 0
# Processed by: cddbd v1.5.2PL0 Copyright (c) Steve Scherf et al.
# Submitted via: FreeRIP 2.951 
#
DISCID=3110b716
DTITLE=Caça Níqueis - Caça Níqueis
DYEAR=1900
DGENRE=Rock
TTITLE0=Merda do Izal
TTITLE1=Honk tonk woman
TTITLE2=Sound the bell
TTITLE3=Mary had a little lamb
TTITLE4=Merda do izal
TTITLE5=Someone else is sleeping'in
TTITLE6=Para de me perguntar
TTITLE7=Merda do Izal
TTITLE8=120/100/160
TTITLE9=Hey VocÊ
TTITLE10=Lei Seca
TTITLE11=Tequila Sex e Rock
TTITLE12=Rabo duro
TTITLE13=Abutre's
TTITLE14=Sweet goddess of a love beer
TTITLE15=Walking by myself
TTITLE16=One step at a time
TTITLE17=Born to be wild
TTITLE18=Jail break
TTITLE19=Merda com
TTITLE20=Pelado no Bar
TTITLE21=Garçon
EXTD=
EXTT0=
EXTT1=
EXTT2=
EXTT3=
EXTT4=
EXTT5=
EXTT6=
EXTT7=
EXTT8=
EXTT9=
EXTT10=
EXTT11=
EXTT12=
EXTT13=
EXTT14=
EXTT15=
EXTT16=
EXTT17=
EXTT18=
EXTT19=
EXTT20=
EXTT21=
PLAYORDER=
